<mxfile host="app.diagrams.net" modified="2024-01-26T18:26:35.351Z" agent="Mozilla/5.0 (Windows NT 10.0; Win64; x64) AppleWebKit/537.36 (KHTML, like Gecko) Chrome/120.0.0.0 Safari/537.36" etag="j4P5qU5nKnrdqetYwgdv" version="23.0.2" type="github">
  <diagram name="Seite-1" id="uoB5s_NOn5Kz51gLZ3H2">
    <mxGraphModel dx="1232" dy="1096" grid="1" gridSize="10" guides="1" tooltips="1" connect="1" arrows="1" fold="1" page="1" pageScale="1" pageWidth="827" pageHeight="1169" math="0" shadow="0">
      <root>
        <mxCell id="0" />
        <mxCell id="1" parent="0" />
        <mxCell id="KBUpss7MyCprIlvvS2ba-1" value="STM32" style="whiteSpace=wrap;html=1;aspect=fixed;" parent="1" vertex="1">
          <mxGeometry x="613" y="775" width="150" height="150" as="geometry" />
        </mxCell>
        <mxCell id="KBUpss7MyCprIlvvS2ba-2" value="Watch" style="rounded=0;whiteSpace=wrap;html=1;fillColor=#dae8fc;strokeColor=#6c8ebf;" parent="1" vertex="1">
          <mxGeometry x="643" y="220" width="90" height="50" as="geometry" />
        </mxCell>
        <mxCell id="KBUpss7MyCprIlvvS2ba-3" value="SWD" style="rounded=0;whiteSpace=wrap;html=1;fillColor=#dae8fc;strokeColor=#6c8ebf;" parent="1" vertex="1">
          <mxGeometry x="983" y="820" width="120" height="60" as="geometry" />
        </mxCell>
        <mxCell id="KBUpss7MyCprIlvvS2ba-4" value="USB - SWD" style="rounded=0;whiteSpace=wrap;html=1;fillColor=#dae8fc;strokeColor=#6c8ebf;" parent="1" vertex="1">
          <mxGeometry x="408" y="825" width="110" height="50" as="geometry" />
        </mxCell>
        <mxCell id="KBUpss7MyCprIlvvS2ba-7" value="" style="endArrow=classic;startArrow=classic;html=1;rounded=0;entryX=0;entryY=0.5;entryDx=0;entryDy=0;exitX=1;exitY=0.5;exitDx=0;exitDy=0;edgeStyle=orthogonalEdgeStyle;" parent="1" source="KBUpss7MyCprIlvvS2ba-1" target="KBUpss7MyCprIlvvS2ba-3" edge="1">
          <mxGeometry width="50" height="50" relative="1" as="geometry">
            <mxPoint x="758" y="760" as="sourcePoint" />
            <mxPoint x="808" y="710" as="targetPoint" />
          </mxGeometry>
        </mxCell>
        <mxCell id="KBUpss7MyCprIlvvS2ba-8" value="USB - Data" style="rounded=0;whiteSpace=wrap;html=1;fillColor=#dae8fc;strokeColor=#6c8ebf;" parent="1" vertex="1">
          <mxGeometry x="988" y="395" width="110" height="50" as="geometry" />
        </mxCell>
        <mxCell id="KBUpss7MyCprIlvvS2ba-9" value="USB Switch" style="rounded=0;whiteSpace=wrap;html=1;" parent="1" vertex="1">
          <mxGeometry x="628" y="390" width="120" height="60" as="geometry" />
        </mxCell>
        <mxCell id="KBUpss7MyCprIlvvS2ba-10" value="" style="endArrow=classic;startArrow=classic;html=1;rounded=0;exitX=0.5;exitY=0;exitDx=0;exitDy=0;edgeStyle=orthogonalEdgeStyle;" parent="1" source="KBUpss7MyCprIlvvS2ba-9" target="KBUpss7MyCprIlvvS2ba-2" edge="1">
          <mxGeometry width="50" height="50" relative="1" as="geometry">
            <mxPoint x="758" y="760" as="sourcePoint" />
            <mxPoint x="808" y="710" as="targetPoint" />
            <Array as="points" />
          </mxGeometry>
        </mxCell>
        <mxCell id="KBUpss7MyCprIlvvS2ba-11" value="USB / SWD" style="edgeLabel;html=1;align=center;verticalAlign=middle;resizable=0;points=[];" parent="KBUpss7MyCprIlvvS2ba-10" connectable="0" vertex="1">
          <mxGeometry x="-0.1" y="3" relative="1" as="geometry">
            <mxPoint as="offset" />
          </mxGeometry>
        </mxCell>
        <mxCell id="KBUpss7MyCprIlvvS2ba-12" value="" style="endArrow=classic;startArrow=classic;html=1;rounded=0;exitX=1;exitY=0.5;exitDx=0;exitDy=0;edgeStyle=orthogonalEdgeStyle;entryX=0;entryY=0.5;entryDx=0;entryDy=0;" parent="1" source="KBUpss7MyCprIlvvS2ba-9" target="KBUpss7MyCprIlvvS2ba-8" edge="1">
          <mxGeometry width="50" height="50" relative="1" as="geometry">
            <mxPoint x="759.8" y="420.0299999999999" as="sourcePoint" />
            <mxPoint x="1028" y="674.71" as="targetPoint" />
            <Array as="points">
              <mxPoint x="938" y="420" />
              <mxPoint x="938" y="420" />
            </Array>
          </mxGeometry>
        </mxCell>
        <mxCell id="KBUpss7MyCprIlvvS2ba-13" value="USB" style="edgeLabel;html=1;align=center;verticalAlign=middle;resizable=0;points=[];" parent="KBUpss7MyCprIlvvS2ba-12" connectable="0" vertex="1">
          <mxGeometry x="-0.0643" y="2" relative="1" as="geometry">
            <mxPoint as="offset" />
          </mxGeometry>
        </mxCell>
        <mxCell id="KBUpss7MyCprIlvvS2ba-14" value="" style="edgeStyle=orthogonalEdgeStyle;rounded=0;orthogonalLoop=1;jettySize=auto;html=1;entryX=0;entryY=0.5;entryDx=0;entryDy=0;" parent="1" source="KBUpss7MyCprIlvvS2ba-15" target="KBUpss7MyCprIlvvS2ba-2" edge="1">
          <mxGeometry relative="1" as="geometry">
            <mxPoint x="568" y="379.9999999999999" as="targetPoint" />
            <Array as="points">
              <mxPoint x="468" y="245" />
            </Array>
          </mxGeometry>
        </mxCell>
        <mxCell id="KBUpss7MyCprIlvvS2ba-15" value="Switch - Charging" style="rounded=0;whiteSpace=wrap;html=1;fillColor=#fff2cc;strokeColor=#d6b656;" parent="1" vertex="1">
          <mxGeometry x="398" y="390" width="90" height="60" as="geometry" />
        </mxCell>
        <mxCell id="KBUpss7MyCprIlvvS2ba-16" value="" style="endArrow=classic;startArrow=classic;html=1;rounded=0;exitX=1;exitY=0.5;exitDx=0;exitDy=0;edgeStyle=orthogonalEdgeStyle;entryX=0;entryY=0.5;entryDx=0;entryDy=0;" parent="1" source="KBUpss7MyCprIlvvS2ba-4" target="KBUpss7MyCprIlvvS2ba-1" edge="1">
          <mxGeometry width="50" height="50" relative="1" as="geometry">
            <mxPoint x="758" y="760" as="sourcePoint" />
            <mxPoint x="618" y="845" as="targetPoint" />
          </mxGeometry>
        </mxCell>
        <mxCell id="KBUpss7MyCprIlvvS2ba-17" value="USB" style="edgeLabel;html=1;align=center;verticalAlign=middle;resizable=0;points=[];" parent="KBUpss7MyCprIlvvS2ba-16" connectable="0" vertex="1">
          <mxGeometry x="0.084" y="-3" relative="1" as="geometry">
            <mxPoint y="-4" as="offset" />
          </mxGeometry>
        </mxCell>
        <mxCell id="KBUpss7MyCprIlvvS2ba-18" value="" style="edgeStyle=orthogonalEdgeStyle;rounded=0;orthogonalLoop=1;jettySize=auto;html=1;entryX=1;entryY=0.5;entryDx=0;entryDy=0;" parent="1" source="KBUpss7MyCprIlvvS2ba-20" target="KBUpss7MyCprIlvvS2ba-2" edge="1">
          <mxGeometry relative="1" as="geometry">
            <mxPoint x="918" y="244.9999999999999" as="targetPoint" />
          </mxGeometry>
        </mxCell>
        <mxCell id="KBUpss7MyCprIlvvS2ba-19" value="SEL" style="edgeLabel;html=1;align=center;verticalAlign=middle;resizable=0;points=[];" parent="KBUpss7MyCprIlvvS2ba-18" connectable="0" vertex="1">
          <mxGeometry x="-0.0822" y="2" relative="1" as="geometry">
            <mxPoint y="-2" as="offset" />
          </mxGeometry>
        </mxCell>
        <mxCell id="KBUpss7MyCprIlvvS2ba-20" value="Switch - SEL USB" style="rounded=0;whiteSpace=wrap;html=1;fillColor=#fff2cc;strokeColor=#d6b656;" parent="1" vertex="1">
          <mxGeometry x="988" y="220" width="110" height="50" as="geometry" />
        </mxCell>
        <mxCell id="KBUpss7MyCprIlvvS2ba-21" value="Power - 1V8" style="rounded=0;whiteSpace=wrap;html=1;" parent="1" vertex="1">
          <mxGeometry x="478" y="620" width="80" height="40" as="geometry" />
        </mxCell>
        <mxCell id="KBUpss7MyCprIlvvS2ba-22" value="Power - 3V3" style="rounded=0;whiteSpace=wrap;html=1;" parent="1" vertex="1">
          <mxGeometry x="578" y="620" width="80" height="40" as="geometry" />
        </mxCell>
        <mxCell id="KBUpss7MyCprIlvvS2ba-23" value="" style="endArrow=classic;html=1;rounded=0;entryX=0.5;entryY=1;entryDx=0;entryDy=0;edgeStyle=orthogonalEdgeStyle;exitX=0.818;exitY=0;exitDx=0;exitDy=0;exitPerimeter=0;" parent="1" source="KBUpss7MyCprIlvvS2ba-4" target="KBUpss7MyCprIlvvS2ba-22" edge="1">
          <mxGeometry width="50" height="50" relative="1" as="geometry">
            <mxPoint x="499" y="821" as="sourcePoint" />
            <mxPoint x="808" y="610" as="targetPoint" />
            <Array as="points">
              <mxPoint x="498" y="740" />
              <mxPoint x="618" y="740" />
              <mxPoint x="618" y="660" />
            </Array>
          </mxGeometry>
        </mxCell>
        <mxCell id="KBUpss7MyCprIlvvS2ba-24" value="5V0" style="edgeLabel;html=1;align=center;verticalAlign=middle;resizable=0;points=[];" parent="KBUpss7MyCprIlvvS2ba-23" connectable="0" vertex="1">
          <mxGeometry x="-0.6231" y="-1" relative="1" as="geometry">
            <mxPoint as="offset" />
          </mxGeometry>
        </mxCell>
        <mxCell id="KBUpss7MyCprIlvvS2ba-25" value="" style="endArrow=classic;html=1;rounded=0;edgeStyle=orthogonalEdgeStyle;exitX=0.573;exitY=0.006;exitDx=0;exitDy=0;exitPerimeter=0;entryX=0.517;entryY=1.025;entryDx=0;entryDy=0;entryPerimeter=0;" parent="1" source="KBUpss7MyCprIlvvS2ba-4" target="KBUpss7MyCprIlvvS2ba-21" edge="1">
          <mxGeometry width="50" height="50" relative="1" as="geometry">
            <mxPoint x="478" y="820" as="sourcePoint" />
            <mxPoint x="518" y="660" as="targetPoint" />
            <Array as="points">
              <mxPoint x="471" y="710" />
              <mxPoint x="519" y="710" />
              <mxPoint x="519" y="661" />
              <mxPoint x="519" y="661" />
            </Array>
          </mxGeometry>
        </mxCell>
        <mxCell id="KBUpss7MyCprIlvvS2ba-26" value="5V0" style="edgeLabel;html=1;align=center;verticalAlign=middle;resizable=0;points=[];" parent="KBUpss7MyCprIlvvS2ba-25" connectable="0" vertex="1">
          <mxGeometry x="-0.2093" y="-2" relative="1" as="geometry">
            <mxPoint y="12" as="offset" />
          </mxGeometry>
        </mxCell>
        <mxCell id="KBUpss7MyCprIlvvS2ba-27" value="" style="endArrow=classic;html=1;rounded=0;edgeStyle=orthogonalEdgeStyle;entryX=0.5;entryY=1;entryDx=0;entryDy=0;exitX=0.317;exitY=-0.002;exitDx=0;exitDy=0;exitPerimeter=0;" parent="1" source="KBUpss7MyCprIlvvS2ba-4" target="KBUpss7MyCprIlvvS2ba-15" edge="1">
          <mxGeometry width="50" height="50" relative="1" as="geometry">
            <mxPoint x="443" y="820" as="sourcePoint" />
            <mxPoint x="435" y="430" as="targetPoint" />
            <Array as="points">
              <mxPoint x="443" y="690" />
              <mxPoint x="443" y="690" />
            </Array>
          </mxGeometry>
        </mxCell>
        <mxCell id="KBUpss7MyCprIlvvS2ba-28" value="5V0" style="edgeLabel;html=1;align=center;verticalAlign=middle;resizable=0;points=[];" parent="KBUpss7MyCprIlvvS2ba-27" connectable="0" vertex="1">
          <mxGeometry x="0.0011" y="3" relative="1" as="geometry">
            <mxPoint x="3" y="55" as="offset" />
          </mxGeometry>
        </mxCell>
        <mxCell id="KBUpss7MyCprIlvvS2ba-29" value="" style="endArrow=classic;html=1;rounded=0;entryX=0.831;entryY=0;entryDx=0;entryDy=0;edgeStyle=orthogonalEdgeStyle;exitX=0.5;exitY=1;exitDx=0;exitDy=0;entryPerimeter=0;" parent="1" source="KBUpss7MyCprIlvvS2ba-20" target="KBUpss7MyCprIlvvS2ba-9" edge="1">
          <mxGeometry width="50" height="50" relative="1" as="geometry">
            <mxPoint x="1048" y="280" as="sourcePoint" />
            <mxPoint x="738" y="470" as="targetPoint" />
            <Array as="points">
              <mxPoint x="1043" y="320" />
              <mxPoint x="728" y="320" />
            </Array>
          </mxGeometry>
        </mxCell>
        <mxCell id="KBUpss7MyCprIlvvS2ba-30" value="SEL" style="edgeLabel;html=1;align=center;verticalAlign=middle;resizable=0;points=[];" parent="KBUpss7MyCprIlvvS2ba-29" connectable="0" vertex="1">
          <mxGeometry x="0.1202" relative="1" as="geometry">
            <mxPoint as="offset" />
          </mxGeometry>
        </mxCell>
        <mxCell id="KBUpss7MyCprIlvvS2ba-31" value="SEL:&lt;br&gt;- Default: HIGH via Pull-Up&lt;br&gt;&lt;span style=&quot;white-space: pre;&quot;&gt;&#x9;&lt;/span&gt;- Must be HIGH because SEL is used as RESET in revisions &amp;lt;5&lt;br&gt;- Watch Rev 1 to 4&lt;br&gt;&lt;span style=&quot;white-space: pre;&quot;&gt;&#x9;&lt;/span&gt;- Reset of the Watch pulled to HIGH&lt;br&gt;&lt;span style=&quot;white-space: pre;&quot;&gt;&#x9;&lt;/span&gt;- SWD selected&lt;br&gt;- Watch Rev &amp;gt;4&lt;br&gt;&lt;span style=&quot;white-space: pre;&quot;&gt;&#x9;&lt;/span&gt;- SWD selected" style="text;html=1;align=left;verticalAlign=middle;resizable=0;points=[];autosize=1;strokeColor=none;fillColor=none;" parent="1" vertex="1">
          <mxGeometry x="748" y="40" width="390" height="130" as="geometry" />
        </mxCell>
        <mxCell id="KBUpss7MyCprIlvvS2ba-32" value="Switch is pulling SEL to LOW" style="text;html=1;align=center;verticalAlign=middle;resizable=0;points=[];autosize=1;strokeColor=none;fillColor=none;" parent="1" vertex="1">
          <mxGeometry x="1178" y="230" width="180" height="30" as="geometry" />
        </mxCell>
        <mxCell id="KBUpss7MyCprIlvvS2ba-33" value="SEL = LOW -&amp;gt; USB&lt;br&gt;SEL = HIGH -&amp;gt; SWD" style="text;html=1;align=center;verticalAlign=middle;resizable=0;points=[];autosize=1;strokeColor=none;fillColor=none;" parent="1" vertex="1">
          <mxGeometry x="783" y="330" width="140" height="40" as="geometry" />
        </mxCell>
        <mxCell id="KBUpss7MyCprIlvvS2ba-35" value="" style="endArrow=classic;startArrow=classic;html=1;rounded=0;exitX=0.5;exitY=0;exitDx=0;exitDy=0;entryX=0.5;entryY=1;entryDx=0;entryDy=0;edgeStyle=orthogonalEdgeStyle;" parent="1" source="KBUpss7MyCprIlvvS2ba-1" target="KBUpss7MyCprIlvvS2ba-9" edge="1">
          <mxGeometry width="50" height="50" relative="1" as="geometry">
            <mxPoint x="808" y="680" as="sourcePoint" />
            <mxPoint x="858" y="630" as="targetPoint" />
            <Array as="points">
              <mxPoint x="688" y="775" />
            </Array>
          </mxGeometry>
        </mxCell>
        <mxCell id="KBUpss7MyCprIlvvS2ba-36" value="SWD" style="edgeLabel;html=1;align=center;verticalAlign=middle;resizable=0;points=[];" parent="KBUpss7MyCprIlvvS2ba-35" vertex="1" connectable="0">
          <mxGeometry x="-0.2393" y="-2" relative="1" as="geometry">
            <mxPoint x="-2" y="-1" as="offset" />
          </mxGeometry>
        </mxCell>
        <mxCell id="KBUpss7MyCprIlvvS2ba-38" value="" style="curved=1;endArrow=classic;html=1;rounded=0;dashed=1;entryX=0.519;entryY=0.988;entryDx=0;entryDy=0;entryPerimeter=0;" parent="1" target="KBUpss7MyCprIlvvS2ba-31" edge="1">
          <mxGeometry width="50" height="50" relative="1" as="geometry">
            <mxPoint x="880" y="240" as="sourcePoint" />
            <mxPoint x="868" y="190" as="targetPoint" />
            <Array as="points">
              <mxPoint x="970" y="230" />
            </Array>
          </mxGeometry>
        </mxCell>
        <mxCell id="KBUpss7MyCprIlvvS2ba-40" value="" style="curved=1;endArrow=classic;html=1;rounded=0;dashed=1;exitX=0.002;exitY=0.493;exitDx=0;exitDy=0;exitPerimeter=0;entryX=1.025;entryY=0.52;entryDx=0;entryDy=0;entryPerimeter=0;" parent="1" source="KBUpss7MyCprIlvvS2ba-32" target="KBUpss7MyCprIlvvS2ba-20" edge="1">
          <mxGeometry width="50" height="50" relative="1" as="geometry">
            <mxPoint x="878" y="250" as="sourcePoint" />
            <mxPoint x="878" y="200" as="targetPoint" />
            <Array as="points">
              <mxPoint x="1148" y="240" />
              <mxPoint x="1128" y="250" />
            </Array>
          </mxGeometry>
        </mxCell>
        <mxCell id="KBUpss7MyCprIlvvS2ba-43" value="LED - Debug" style="rounded=0;whiteSpace=wrap;html=1;fillColor=#d5e8d4;strokeColor=#82b366;" parent="1" vertex="1">
          <mxGeometry x="1003" y="730" width="80" height="30" as="geometry" />
        </mxCell>
        <mxCell id="KBUpss7MyCprIlvvS2ba-44" value="LED - Charging" style="rounded=0;whiteSpace=wrap;html=1;fillColor=#d5e8d4;strokeColor=#82b366;" parent="1" vertex="1">
          <mxGeometry x="645.5" y="160" width="85" height="30" as="geometry" />
        </mxCell>
        <mxCell id="KBUpss7MyCprIlvvS2ba-45" value="" style="edgeStyle=orthogonalEdgeStyle;rounded=0;orthogonalLoop=1;jettySize=auto;html=1;entryX=0;entryY=0.5;entryDx=0;entryDy=0;exitX=0.25;exitY=0;exitDx=0;exitDy=0;" parent="1" source="KBUpss7MyCprIlvvS2ba-15" target="KBUpss7MyCprIlvvS2ba-44" edge="1">
          <mxGeometry relative="1" as="geometry">
            <mxPoint x="643" y="180" as="targetPoint" />
            <Array as="points">
              <mxPoint x="421" y="175" />
            </Array>
            <mxPoint x="468" y="325" as="sourcePoint" />
          </mxGeometry>
        </mxCell>
        <mxCell id="KBUpss7MyCprIlvvS2ba-47" value="" style="endArrow=classic;html=1;rounded=0;entryX=0.5;entryY=0;entryDx=0;entryDy=0;exitX=0.5;exitY=1;exitDx=0;exitDy=0;edgeStyle=orthogonalEdgeStyle;" parent="1" source="KBUpss7MyCprIlvvS2ba-1" target="KBUpss7MyCprIlvvS2ba-48" edge="1">
          <mxGeometry width="50" height="50" relative="1" as="geometry">
            <mxPoint x="868" y="1090" as="sourcePoint" />
            <mxPoint x="1033" y="995" as="targetPoint" />
          </mxGeometry>
        </mxCell>
        <mxCell id="KBUpss7MyCprIlvvS2ba-48" value="LED - Status" style="rounded=0;whiteSpace=wrap;html=1;fillColor=#d5e8d4;strokeColor=#82b366;" parent="1" vertex="1">
          <mxGeometry x="648" y="970" width="80" height="30" as="geometry" />
        </mxCell>
        <mxCell id="KBUpss7MyCprIlvvS2ba-49" value="" style="endArrow=classic;html=1;rounded=0;entryX=0.5;entryY=1;entryDx=0;entryDy=0;exitX=0.5;exitY=0;exitDx=0;exitDy=0;exitPerimeter=0;edgeStyle=orthogonalEdgeStyle;" parent="1" source="KBUpss7MyCprIlvvS2ba-3" target="KBUpss7MyCprIlvvS2ba-43" edge="1">
          <mxGeometry width="50" height="50" relative="1" as="geometry">
            <mxPoint x="1028" y="830" as="sourcePoint" />
            <mxPoint x="1078" y="780" as="targetPoint" />
            <Array as="points">
              <mxPoint x="1043" y="790" />
              <mxPoint x="1043" y="790" />
            </Array>
          </mxGeometry>
        </mxCell>
        <mxCell id="KBUpss7MyCprIlvvS2ba-53" value="Disables VBus for the watch" style="text;html=1;align=center;verticalAlign=middle;resizable=0;points=[];autosize=1;strokeColor=none;fillColor=none;" parent="1" vertex="1">
          <mxGeometry x="200" y="360" width="170" height="30" as="geometry" />
        </mxCell>
        <mxCell id="KBUpss7MyCprIlvvS2ba-54" value="" style="curved=1;endArrow=classic;html=1;rounded=0;dashed=1;entryX=-0.016;entryY=0.314;entryDx=0;entryDy=0;entryPerimeter=0;exitX=0.901;exitY=1.081;exitDx=0;exitDy=0;exitPerimeter=0;" parent="1" source="KBUpss7MyCprIlvvS2ba-53" target="KBUpss7MyCprIlvvS2ba-15" edge="1">
          <mxGeometry width="50" height="50" relative="1" as="geometry">
            <mxPoint x="-105" y="385" as="sourcePoint" />
            <mxPoint x="118" y="381" as="targetPoint" />
            <Array as="points">
              <mxPoint x="378" y="410" />
            </Array>
          </mxGeometry>
        </mxCell>
      </root>
    </mxGraphModel>
  </diagram>
</mxfile>
